Coordinates
version=1
nRows=44
nColumns=8
inDegrees=no

Units are S.I. units (second, meters, Newtons, ...)
Angles are in radians.

endheader
time	ra_sh_e_f	ra_sh_ad_ab	ra_sh_ext_int	elbow_flexion	ra_wr_e_f	ra_wr_s_p	ra_wr_ad_ab
      1.25833333	     -0.86750900	      0.15722100	      0.28860100	      0.90839500	     -0.14278600	     -0.22800500	     -0.64650900
      1.26041667	     -0.86460500	      0.15835800	      0.28978200	      0.91538300	     -0.13960400	     -0.23055700	     -0.64808400
      1.26250000	     -0.86150200	      0.15941700	      0.29141400	      0.92258900	     -0.13674700	     -0.23359500	     -0.64988900
      1.26458333	     -0.85817700	      0.16016900	      0.29248000	      0.92989800	     -0.13335100	     -0.23725400	     -0.64930300
      1.26666667	     -0.85545000	      0.16143600	      0.29358200	      0.93694600	     -0.13009700	     -0.23977100	     -0.65252500
      1.26875000	     -0.85235200	      0.16261400	      0.29516400	      0.94401600	     -0.12637200	     -0.24353400	     -0.65204900
      1.27083333	     -0.84885700	      0.16335400	      0.29616300	      0.95183900	     -0.12254700	     -0.24710700	     -0.65351800
      1.27291667	     -0.84576200	      0.16483000	      0.29783300	      0.95945300	     -0.11921200	     -0.25025800	     -0.65502000
      1.27500000	     -0.84180200	      0.16561300	      0.29745900	      0.96815900	     -0.11512000	     -0.25332500	     -0.65581500
      1.27708333	     -0.83861600	      0.16728000	      0.29990600	      0.97609100	     -0.11218200	     -0.25777300	     -0.65983000
      1.27916667	     -0.83521500	      0.16838000	      0.30111500	      0.98423600	     -0.10751900	     -0.26160300	     -0.66129800
      1.28125000	     -0.83182600	      0.16930100	      0.30183300	      0.99253300	     -0.10334700	     -0.26541700	     -0.66287900
      1.28333333	     -0.82782700	      0.17043200	      0.30246000	      1.00163000	     -0.09937430	     -0.26928900	     -0.66468700
      1.28541667	     -0.82369200	      0.17158200	      0.30327300	      1.01055000	     -0.09441640	     -0.27369300	     -0.66617200
      1.28750000	     -0.81969800	      0.17261300	      0.30396000	      1.01965000	     -0.08951820	     -0.27820300	     -0.66842000
      1.28958333	     -0.81591400	      0.17334800	      0.30382500	      1.02860000	     -0.08456150	     -0.28215200	     -0.67002600
      1.29166667	     -0.81141100	      0.17466500	      0.30521300	      1.03852000	     -0.07968180	     -0.28727200	     -0.67353300
      1.29375000	     -0.80721900	      0.17606600	      0.30613900	      1.04807000	     -0.07414570	     -0.29112500	     -0.67629900
      1.29583333	     -0.80289200	      0.17707600	      0.30693000	      1.05762000	     -0.06846290	     -0.29716100	     -0.68056900
      1.29791667	     -0.79840400	      0.17832600	      0.30766700	      1.06752000	     -0.06156980	     -0.30230300	     -0.68267200
      1.30000000	     -0.79382600	      0.17926200	      0.30753800	      1.07768000	     -0.05571640	     -0.30696400	     -0.68638800
      1.30208333	     -0.78897400	      0.17990900	      0.30698000	      1.08781000	     -0.04799330	     -0.31135800	     -0.68973300
      1.30416667	     -0.78436700	      0.18142200	      0.30812600	      1.09799000	     -0.04149900	     -0.31615500	     -0.69411900
      1.30625000	     -0.77917800	      0.18169400	      0.30690100	      1.10862000	     -0.03312830	     -0.32079200	     -0.69344800
      1.30833333	     -0.77452100	      0.18328100	      0.30726100	      1.11875000	     -0.02621190	     -0.32553000	     -0.69546000
      1.31041667	     -0.76940900	      0.18441600	      0.30689200	      1.13027000	     -0.01876590	     -0.33042800	     -0.69528600
      1.31250000	     -0.76407500	      0.18455400	      0.30536400	      1.14151000	     -0.01072470	     -0.33443400	     -0.69446200
      1.31458333	     -0.75893500	      0.18545900	      0.30491900	      1.15263000	     -0.00270451	     -0.33955000	     -0.69321100
      1.31666667	     -0.75360700	      0.18566700	      0.30404600	      1.16352000	      0.00574379	     -0.34467400	     -0.69109200
      1.31875000	     -0.74793200	      0.18580600	      0.30227500	      1.17496000	      0.01456490	     -0.34904900	     -0.68913600
      1.32083333	     -0.74258000	      0.18631100	      0.30128200	      1.18612000	      0.02361340	     -0.35401000	     -0.68621700
      1.32291667	     -0.73732900	      0.18677700	      0.30030500	      1.19708000	      0.03309250	     -0.35899200	     -0.68272400
      1.32500000	     -0.73240500	      0.18733900	      0.29936500	      1.20768000	      0.04283600	     -0.36510600	     -0.68384800
      1.32708333	     -0.72637000	      0.18750200	      0.29775200	      1.21931000	      0.05214200	     -0.37069300	     -0.68391900
      1.32916667	     -0.72102000	      0.18800600	      0.29681500	      1.23061000	      0.06164180	     -0.37559600	     -0.68299100
      1.33125000	     -0.71552400	      0.18833500	      0.29608300	      1.24207000	      0.07117530	     -0.38118100	     -0.68104400
      1.33333333	     -0.70983300	      0.18870700	      0.29505400	      1.25400000	      0.07928600	     -0.38678900	     -0.68098700
      1.33541667	     -0.70433000	      0.18922000	      0.29397400	      1.26538000	      0.08856360	     -0.39147000	     -0.68046600
      1.33750000	     -0.69898400	      0.18951500	      0.29290100	      1.27696000	      0.09673600	     -0.39533700	     -0.67575100
      1.33958333	     -0.69351000	      0.18953900	      0.29163400	      1.28845000	      0.10508400	     -0.39936800	     -0.67475800
      1.34166667	     -0.68816000	      0.19052300	      0.29113300	      1.30057000	      0.11301400	     -0.40385400	     -0.67526900
      1.34375000	     -0.68217700	      0.19046500	      0.28992000	      1.31287000	      0.12161800	     -0.40781500	     -0.67566200
      1.34583333	     -0.67681500	      0.19083200	      0.28835500	      1.32452000	      0.13011900	     -0.41193200	     -0.67341400
      1.34791667	     -0.67112500	      0.19073000	      0.28695600	      1.33620000	      0.13957700	     -0.41682900	     -0.67182500
